<svg width="158" height="158" viewBox="0 0 158 158" fill="none" xmlns="http://www.w3.org/2000/svg">
<path fill-rule="evenodd" clip-rule="evenodd" d="M79 0C35.3683 0 0 35.3683 0 79C0 122.632 35.3683 158 79 158C122.632 158 158 122.632 158 79C158 35.3683 122.632 0 79 0ZM51.35 59.25C51.35 55.619 52.0652 52.0235 53.4547 48.6688C54.8443 45.3142 56.881 42.266 59.4485 39.6985C62.016 37.131 65.0642 35.0943 68.4188 33.7047C71.7735 32.3152 75.369 31.6 79 31.6C82.631 31.6 86.2265 32.3152 89.5812 33.7047C92.9358 35.0943 95.984 37.131 98.5515 39.6985C101.119 42.266 103.156 45.3142 104.545 48.6688C105.935 52.0235 106.65 55.619 106.65 59.25C106.65 66.5832 103.737 73.6161 98.5515 78.8015C93.3661 83.9869 86.3332 86.9 79 86.9C71.6668 86.9 64.6339 83.9869 59.4485 78.8015C54.2631 73.6161 51.35 66.5832 51.35 59.25ZM128.438 118.374C122.525 125.812 115.007 131.819 106.446 135.945C97.8852 140.071 88.503 142.209 79 142.2C69.497 142.209 60.1148 140.071 51.5541 135.945C42.9934 131.819 35.4755 125.812 29.5618 118.374C42.3677 109.186 59.8425 102.7 79 102.7C98.1575 102.7 115.632 109.186 128.438 118.374Z" fill="#BBBBBB"/>
</svg>
